{
    "asset" : {
        "generator" : "Khronos glTF Blender I/O v1.8.19",
        "version" : "2.0"
    },
    "scene" : 0,
    "scenes" : [
        {
            "name" : "Scene",
            "nodes" : [
                0
            ]
        }
    ],
    "nodes" : [
        {
            "mesh" : 0,
            "name" : "\u96d5\u5851_\u98de\u9a6c"
        }
    ],
    "materials" : [
        {
            "doubleSided" : true,
            "name" : "Mat3d66-1525640-1-3887",
            "pbrMetallicRoughness" : {
                "baseColorFactor" : [
                    0.01960800029337406,
                    0.01960800029337406,
                    0.01960800029337406,
                    1
                ],
                "metallicFactor" : 0.5196850299835205,
                "roughnessFactor" : 0.5
            }
        }
    ],
    "meshes" : [
        {
            "name" : "Obj3d66-1525640-1034-767",
            "primitives" : [
                {
                    "attributes" : {
                        "POSITION" : 0,
                        "NORMAL" : 1,
                        "TEXCOORD_0" : 2
                    },
                    "indices" : 3,
                    "material" : 0
                }
            ]
        }
    ],
    "accessors" : [
        {
            "bufferView" : 0,
            "componentType" : 5126,
            "count" : 85865,
            "max" : [
                1.4154255390167236,
                3.5190227031707764,
                1.7392939329147339
            ],
            "min" : [
                -1.4065966606140137,
                -4.656612873077393e-10,
                -1.784150242805481
            ],
            "type" : "VEC3"
        },
        {
            "bufferView" : 1,
            "componentType" : 5126,
            "count" : 85865,
            "type" : "VEC3"
        },
        {
            "bufferView" : 2,
            "componentType" : 5126,
            "count" : 85865,
            "type" : "VEC2"
        },
        {
            "bufferView" : 3,
            "componentType" : 5125,
            "count" : 86079,
            "type" : "SCALAR"
        }
    ],
    "bufferViews" : [
        {
            "buffer" : 0,
            "byteLength" : 1030380,
            "byteOffset" : 0
        },
        {
            "buffer" : 0,
            "byteLength" : 1030380,
            "byteOffset" : 1030380
        },
        {
            "buffer" : 0,
            "byteLength" : 686920,
            "byteOffset" : 2060760
        },
        {
            "buffer" : 0,
            "byteLength" : 344316,
            "byteOffset" : 2747680
        }
    ],
    "buffers" : [
        {
            "byteLength" : 3091996,
            "uri" : "data:application/octet-stream;base64,"
        }
    ]
}
